<svg width="100" height="100" viewBox="0 0 100 100" fill="none" xmlns="http://www.w3.org/2000/svg">
<path fill-rule="evenodd" clip-rule="evenodd" d="M86.0746 81.4363C83.4614 84.9009 79.7694 87.5341 75.0739 89.3711L75.0654 89.3744L75.0568 89.3777C70.3629 91.1375 64.9088 92 58.7206 92H19V12H57.2767C63.2357 12 68.465 12.8238 72.9364 14.5081C77.4741 16.1161 81.0584 18.4814 83.6063 21.6483C86.1702 24.8352 87.4454 28.5849 87.4454 32.8384C87.4454 37.1663 86.1327 40.9876 83.499 44.2448C81.7431 46.4794 79.5425 48.2159 76.9216 49.4631C80.3313 50.7433 83.164 52.7686 85.3824 55.5525C88.4736 59.3386 90 63.9033 90 69.1736C90 73.7769 88.6994 77.8774 86.0829 81.4251L86.0746 81.4363ZM84.3774 56.3624C82.0365 53.4222 78.9526 51.3738 75.1255 50.2172C74.3524 49.9836 73.549 49.7864 72.7152 49.6255C73.5357 49.407 74.3213 49.151 75.0722 48.8575C78.1163 47.6678 80.5886 45.8622 82.4893 43.4408C84.9328 40.4221 86.1545 36.8879 86.1545 32.8384C86.1545 28.8625 84.9698 25.4021 82.6003 22.4569C80.2309 19.5118 76.8618 17.2662 72.4931 15.72C68.1984 14.1002 63.1263 13.2903 57.2767 13.2903H20.2909V90.7097H58.7206C64.7923 90.7097 70.0866 89.863 74.6034 88.1695C79.1202 86.4025 82.6003 83.8991 85.0438 80.6595C87.4873 77.3463 88.7091 73.5176 88.7091 69.1736C88.7091 64.1669 87.2652 59.8965 84.3774 56.3624ZM62.0292 31.973L62.0152 31.9617C60.6964 30.8887 58.8109 30.305 56.1998 30.3733L56.1829 30.3738H41.9073V42.8131H56.166C58.7752 42.8131 60.6716 42.2017 62.002 41.1255C63.2975 40.0067 63.9827 38.4745 63.9827 36.3726C63.9827 34.3503 63.3049 32.9533 62.0434 31.9839L62.0292 31.973ZM56.166 44.1034C58.9798 44.1034 61.2011 43.4408 62.8301 42.1155C64.4591 40.7166 65.2736 38.8023 65.2736 36.3726C65.2736 34.0165 64.4591 32.2126 62.8301 30.9609C61.2011 29.6356 58.9798 29.0098 56.166 29.0834H40.6164V44.1034H56.166ZM63.8721 61.9513L63.8595 61.9423C62.0863 60.6829 59.5774 60.0121 56.1928 60.0822L56.1794 60.0825H41.9073V73.7367H56.166C59.5556 73.7367 62.076 73.0331 63.8595 71.7664C65.5752 70.5478 66.4262 68.8873 66.4262 66.6335C66.4262 64.6473 65.6151 63.1274 63.885 61.96L63.8721 61.9513ZM40.6164 75.027V58.7921H56.166C59.7202 58.7185 62.534 59.418 64.6072 60.8905C66.6805 62.2894 67.7172 64.2038 67.7172 66.6335C67.7172 69.2841 66.6805 71.3456 64.6072 72.8182C62.534 74.2907 59.7202 75.027 56.166 75.027H40.6164Z" fill="url(#paint0_linear_2_2)"/>
<g filter="url(#filter0_b_2_2)">
<path d="M47.3003 8C53.1997 8 58.3149 8.79506 62.6461 10.3852C67.052 11.903 70.4497 14.1075 72.8393 16.9986C75.2289 19.8897 76.4237 23.2867 76.4237 27.1897C76.4237 31.165 75.1916 34.6343 72.7273 37.5977C70.3377 40.5611 67.0519 42.5849 62.8701 43.669C67.8734 44.6087 71.7938 46.8131 74.6315 50.2825C77.5438 53.7518 79 57.9439 79 62.8588C79 67.1232 77.7679 70.8816 75.3036 74.1341C72.8393 77.3143 69.3296 79.7718 64.7744 81.5064C60.2192 83.1688 54.8799 84 48.7565 84H10V8H47.3003ZM46.1802 38.2482C49.0179 38.2482 51.2581 37.5977 52.901 36.2967C54.5438 34.9234 55.3653 33.0442 55.3653 30.6591C55.3653 28.3462 54.5438 26.5754 52.901 25.3467C51.2581 24.0457 49.0179 23.4313 46.1802 23.5036H30.4984V38.2482H46.1802ZM46.1802 68.6049C49.7646 68.6049 52.6023 67.8821 54.6932 66.4365C56.7841 64.991 57.8296 62.9672 57.8296 60.3652C57.8296 57.98 56.7841 56.1008 54.6932 54.7275C52.6023 53.282 49.7646 52.5953 46.1802 52.6676H30.4984V68.6049H46.1802Z" fill="white"/>
</g>
<defs>
<filter id="filter0_b_2_2" x="5" y="3" width="79" height="86" filterUnits="userSpaceOnUse" color-interpolation-filters="sRGB">
<feFlood flood-opacity="0" result="BackgroundImageFix"/>
<feGaussianBlur in="BackgroundImage" stdDeviation="2.5"/>
<feComposite in2="SourceAlpha" operator="in" result="effect1_backgroundBlur_2_2"/>
<feBlend mode="normal" in="SourceGraphic" in2="effect1_backgroundBlur_2_2" result="shape"/>
</filter>
<linearGradient id="paint0_linear_2_2" x1="106.5" y1="99.5" x2="40.5" y2="42" gradientUnits="userSpaceOnUse">
<stop stop-color="white"/>
<stop offset="1" stop-color="white" stop-opacity="0"/>
</linearGradient>
</defs>
</svg>
